<?xml version="1.0" ?>
<svg xmlns="http://www.w3.org/2000/svg" viewBox="-1 -1 951 79" width="952" height="80" version="1.1">
    <style>
        text { fill: white; font-size: 16px; font-family: sans-serif }
        .box { stroke: white; stroke-width: 2 }
        .tooltip rect { stroke: white; stroke-width: 1 }
        .tooltip text { font-style: italic; font-size: 12px }
    </style>
    <!-- SWIMLANE: page loading -->
    <g fill="#3e3f43" transform="translate(0, 20)">
        <!-- Runtime starts -->
        <g fill="#756d3f" transform="translate(140, 0)">
            <!-- HTML read (DOM + sync JS) -->
            <g fill="#2f371f" transform="translate(240, 0)">
                <!-- Read finished -->
                <g fill="#013148" transform="translate(130, 0)" opacity=".5">
                    <!-- Images + async JS -->
                    <g fill="#01142d" transform="translate(170, 0)">
                        <!-- Page loaded -->
                        <g fill="#000" transform="translate(120, 0)">
                            <!-- Complicated init -->
                            <!-- STEP 2-6 -->
                            <rect x="0" y="0" width="150" height="40" class="box" />
                            <text x="20" y="25" >Complicated init</text>
                            <g class="tooltip" transform="translate(85, 30)">
                                <rect x="0" y="0" width="60" height="21" />
                                <text x="10" y="16" >custom</text>
                            </g>
                        </g>

                        <!-- STEP 2-5 -->
                        <path d="M0,40 v-40 h120 v10 l10,10 l-10,10 v10 z" class="box" />
                        <text x="20" y="25" >Page loaded</text>
                        <g class="tooltip" transform="translate(45, 30)">
                            <rect x="0" y="0" width="70" height="21" />
                            <text x="10" y="16" >complete</text>
                        </g>
                    </g>

                    <!-- STEP 2-4 -->
                    <path d="M0,40 v-40 h170 v10 l10,10 l-10,10 v10 z" class="box" />
                    <text x="20" y="25" >Images + async JS</text>
                </g>

                <!-- STEP 2-3 -->
                <path d="M0,40 v-40 h130 v10 l10,10 l-10,10 v10 z" class="box" />
                <text x="20" y="25" >Read finished</text>
                <g class="tooltip" transform="translate(55, 30)">
                    <rect x="0" y="0" width="70" height="21" />
                    <text x="10" y="16" >first-paint</text>
                </g>
            </g>

            <!-- STEP 2-2 -->
            <path d="M0,40 v-40 h240 v10 l10,10 l-10,10 v10 z" class="box" />
            <text x="20" y="25" >HTML read (DOM + sync JS)</text>
        </g>

        <!-- STEP 2-1 -->
        <path d="M0,40 v-40 h140 v10 l10,10 l-10,10 v10 z" class="box" />
        <text x="20" y="25" >Runtime starts</text>
    </g>
</svg>